{"accessors":[{"bufferView":0,"componentType":5126,"count":5118,"max":[91.06465911865234,30.824172973632813,122.39913177490234],"min":[-56.28868103027344,-10.718352317810059,-61.504661560058594],"normalized":false,"type":"VEC3"},{"bufferView":1,"componentType":5126,"count":5118,"max":[0.00012697122292593122,0.12662258744239807,0.7959042191505432,1.0],"min":[-1.0,-1.0,-1.0,-1.0],"normalized":false,"type":"VEC4"},{"bufferView":2,"componentType":5126,"count":5118,"max":[1.0,1.0,1.0],"min":[-1.0,-1.0,-1.0],"normalized":false,"type":"VEC3"},{"bufferView":3,"componentType":5126,"count":5118,"max":[1.0,1.0],"min":[0.0,0.0],"normalized":false,"type":"VEC2"},{"bufferView":4,"componentType":5123,"count":5118,"max":[5117],"min":[0],"normalized":false,"type":"SCALAR"}],"asset":{"generator":"Godot Engine v4.6.2.stable.official@71f334935c000924d403448e698df4441130df18","version":"2.0"},"bufferViews":[{"buffer":0,"byteLength":61416,"byteStride":12,"target":34962},{"buffer":0,"byteLength":81888,"byteOffset":61416,"byteStride":16,"target":34962},{"buffer":0,"byteLength":61416,"byteOffset":143304,"byteStride":12,"target":34962},{"buffer":0,"byteLength":40944,"byteOffset":204720,"byteStride":8,"target":34962},{"buffer":0,"byteLength":10236,"byteOffset":245664,"target":34963}],"buffers":[{"byteLength":255900,"uri":"terrain0.bin"}],"extensionsRequired":["KHR_texture_transform"],"extensionsUsed":["GODOT_single_root","KHR_texture_transform"],"images":[{"uri":"textures%2F.png"}],"materials":[{"pbrMetallicRoughness":{"baseColorFactor":[0.19806930422782898,0.2581828534603119,0.0,1.0],"baseColorTexture":{"extensions":{"KHR_texture_transform":{"scale":[0.25,0.25]}},"index":0},"metallicFactor":0.0,"roughnessFactor":1.0}}],"meshes":[{"name":"Terrain2","primitives":[{"attributes":{"NORMAL":2,"POSITION":0,"TANGENT":1,"TEXCOORD_0":3},"indices":4,"material":0,"mode":4}]}],"nodes":[{"children":[1,2,3,4,5,6,7,8,9,10,11,12,13,14,15,16,17,18,19,20,21,22,23,24,25,26,27,28,29,30,31,32,33,34,35,36,37,38,39,40,41,42,43,44,45,46,47,48,49,50,51,52,53,54,55,56,57,58,59,60,61,62,63,64,65,66,67,68],"mesh":0,"name":"Terrain2"},{"name":"CSGBox3D","translation":[0.0,0.0,0.6353759765625]},{"name":"CSGBox3D2","translation":[14.169296264648438,0.0,-0.7474365234375]},{"name":"CSGBox3D3","translation":[-6.639244079589844,-0.08538818359375,2.49542236328125]},{"name":"CSGBox3D11","translation":[-6.156341552734375,-0.525604248046875,16.54493522644043]},{"name":"CSGBox3D55","translation":[4.587177753448486,-0.24605941772460938,21.254610061645508]},{"name":"CSGBox3D24","translation":[-3.218273162841797,6.881872177124023,21.7359619140625]},{"name":"CSGBox3D56","translation":[-31.58264923095703,14.574566841125488,14.697589874267578]},{"name":"CSGBox3D16","translation":[-27.039596557617188,8.824344635009766,19.753759384155273]},{"name":"CSGBox3D12","translation":[9.404155731201172,0.19461822509765625,16.54493522644043]},{"name":"CSGBox3D13","translation":[5.761822700500488,3.590909957885742,22.871185302734375]},{"name":"CSGBox3D14","translation":[8.436546325683594,3.222543716430664,39.82821273803711]},{"name":"CSGBox3D19","translation":[-14.327295303344727,2.368412971496582,52.54107666015625]},{"name":"CSGBox3D25","translation":[-27.727296829223633,-3.1771035194396973,63.60569763183594]},{"name":"CSGBox3D27","translation":[-24.135696411132813,-2.1384763717651367,71.99504089355469]},{"name":"CSGBox3D28","translation":[-23.014066696166992,-3.1335182189941406,67.49846649169922]},{"name":"CSGBox3D21","translation":[14.554594039916992,8.511995315551758,47.89506149291992]},{"name":"CSGBox3D63","translation":[28.653799057006836,20.77458953857422,41.57217788696289]},{"name":"CSGBox3D64","translation":[14.169761657714844,19.978641510009766,48.88959884643555]},{"name":"CSGBox3D23","translation":[-7.98300838470459,3.320005416870117,70.4322509765625]},{"name":"CSGBox3D32","translation":[13.758679389953613,8.626312255859375,79.46134948730469]},{"name":"CSGBox3D35","translation":[-16.979228973388672,7.749231338500977,87.50955963134766]},{"name":"CSGBox3D68","translation":[-15.536832809448242,20.857887268066406,87.73372650146484]},{"name":"CSGBox3D31","translation":[34.762454986572266,0.6757357120513916,71.98123931884766]},{"name":"CSGBox3D37","translation":[39.83869171142578,0.6757357120513916,87.9090576171875]},{"name":"CSGBox3D47","translation":[39.19310760498047,-0.45577192306518555,82.29399871826172]},{"name":"CSGBox3D43","translation":[34.04882049560547,4.538948059082031,92.1175765991211]},{"name":"CSGBox3D40","translation":[23.829832077026367,0.6757357120513916,102.65475463867188]},{"name":"CSGBox3D50","translation":[-5.421698570251465,2.3503804206848145,103.78678131103516]},{"name":"CSGBox3D44","translation":[15.706022262573242,5.629372596740723,108.01647186279297]},{"name":"CSGBox3D45","rotation":[0.0,0.0,-0.06344371289014816,0.9979854226112366],"translation":[7.24549674987793,15.078267097473145,101.66966247558594]},{"name":"CSGBox3D46","translation":[10.768777847290039,5.629372596740723,97.93140411376953]},{"name":"CSGBox3D48","translation":[0.025369644165039063,6.699643135070801,108.01647186279297]},{"name":"CSGBox3D41","translation":[40.49414825439453,0.6757357120513916,104.9888687133789]},{"name":"CSGBox3D49","translation":[55.81165313720703,3.4299519062042236,106.37092590332031]},{"name":"CSGBox3D52","translation":[83.84196472167969,3.4299519062042236,99.1136245727539]},{"name":"CSGBox3D53","translation":[84.8483657836914,5.4987287521362305,92.26231384277344]},{"name":"CSGBox3D54","translation":[65.47752380371094,7.943346977233887,84.63418579101563]},{"name":"CSGBox3D57","translation":[55.104488372802734,21.796459197998047,90.30440521240234]},{"name":"CSGBox3D66","translation":[34.196075439453125,28.33711051940918,81.36702728271484]},{"name":"CSGBox3D58","translation":[52.30291748046875,15.484809875488281,79.21460723876953]},{"name":"CSGBox3D51","translation":[46.982765197753906,0.8598413467407227,117.52482604980469]},{"name":"CSGBox3D39","translation":[34.762454986572266,14.680782318115234,81.43770599365234]},{"name":"CSGBox3D67","rotation":[-0.1352659910917282,0.0,0.0,0.9908093214035034],"translation":[36.31085205078125,19.6964168548584,80.0504379272461]},{"name":"CSGBox3D65","translation":[14.318174362182617,23.51102066040039,80.21159362792969]},{"name":"CSGBox3D42","translation":[39.323585510253906,12.654653549194336,95.69835662841797]},{"name":"CSGBox3D33","translation":[38.37456512451172,1.8121235370635986,55.41832733154297]},{"name":"CSGBox3D29","translation":[-21.198333740234375,3.805746555328369,80.46511840820313]},{"name":"CSGBox3D30","translation":[-2.865360736846924,2.925933361053467,73.3742446899414]},{"name":"CSGBox3D26","translation":[-20.262989044189453,2.965571403503418,61.10990905761719]},{"name":"CSGBox3D22","translation":[8.55572509765625,0.1442432403564453,56.951847076416016]},{"name":"CSGBox3D20","translation":[-27.507863998413086,4.585129261016846,35.23299789428711]},{"name":"CSGBox3D34","translation":[-42.7005615234375,10.101760864257813,50.26543426513672]},{"name":"CSGBox3D15","translation":[41.178367614746094,7.675328254699707,29.11712074279785]},{"name":"CSGBox3D61","translation":[64.66056823730469,9.975238800048828,37.72427749633789]},{"name":"CSGBox3D62","translation":[42.98497772216797,20.379318237304688,30.31497573852539]},{"name":"CSGBox3D36","translation":[52.00315856933594,3.9758477210998535,64.1394271850586]},{"name":"CSGBox3D59","translation":[63.56011962890625,5.934517860412598,41.884864807128906]},{"name":"CSGBox3D38","translation":[55.90099334716797,6.813846588134766,90.26791381835938]},{"name":"CSGBox3D60","translation":[49.56898880004883,10.062196731567383,101.08502960205078]},{"name":"CSGBox3D17","translation":[25.928970336914063,0.8235321044921875,42.745235443115234]},{"name":"CSGBox3D18","translation":[23.508296966552734,-0.02045917510986328,44.27372741699219]},{"name":"CSGBox3D4","translation":[-11.700557708740234,-0.87298583984375,-7.408308029174805]},{"name":"CSGBox3D8","translation":[-25.55023193359375,1.311798095703125,-10.400388717651367]},{"name":"CSGBox3D9","translation":[28.5601863861084,1.7500152587890625,-10.400388717651367]},{"name":"CSGBox3D10","translation":[2.432588577270508,-0.24877166748046875,-43.52998352050781]},{"name":"CSGBox3D6","translation":[-16.18396759033203,-1.322845458984375,-20.40454864501953]},{"name":"CSGBox3D7","translation":[2.201894760131836,-0.9550628662109375,-22.69554901123047]},{"name":"CSGBox3D5","translation":[13.6873779296875,-1.6226654052734375,-13.687040328979492]}],"samplers":[{"magFilter":9729,"minFilter":9987,"wrapS":10497,"wrapT":10497}],"scene":0,"scenes":[{"nodes":[0]}],"textures":[{"sampler":0,"source":0}]}